<?xml version="1.0" encoding="utf-8"?>
<!-- Generator: Adobe Illustrator 19.0.0, SVG Export Plug-In . SVG Version: 6.00 Build 0)  -->
<!DOCTYPE svg PUBLIC "-//W3C//DTD SVG 1.1//EN" "http://www.w3.org/Graphics/SVG/1.1/DTD/svg11.dtd">
<svg version="1.1" id="Layer_1" xmlns="http://www.w3.org/2000/svg" xmlns:xlink="http://www.w3.org/1999/xlink" x="0px" y="0px"
	 viewBox="660 -220 2280 1000" style="enable-background:new 660 -220 2280 1000;" xml:space="preserve">
<style type="text/css">
	.st0{opacity:0.1;fill:#68C2E8;}
	.st1{opacity:0.2;fill:#68C2E8;}
	.st2{opacity:0.8;fill:#68C2E8;}
	.st3{fill:#FFFFFF;}
	.st4{fill:#222630;}
	.st5{opacity:0.4;fill:#A8D7F0;enable-background:new    ;}
	.st6{fill:#485D70;}
	.st7{fill:#384761;}
	.st8{fill:url(#SVGID_1_);}
	.st9{fill:#50B7EF;}
	.st10{fill:url(#SVGID_2_);}
	.st11{fill:url(#SVGID_3_);}
	.st12{fill:#FAFAFA;}
</style>
<symbol  id="Big_Star" viewBox="-11.3 -11.3 22.6 22.6">
	<g>
		<path class="st0" d="M0-11.3c6.2,0,11.3,5.1,11.3,11.3S6.2,11.3,0,11.3S-11.3,6.2-11.3,0C-11.3-6.2-6.2-11.3,0-11.3"/>
		<path class="st1" d="M0-9.2C5.1-9.2,9.2-5,9.2,0C9.2,5.1,5,9.2,0,9.2S-9.2,5-9.2,0C-9.2-5.1-5.1-9.2,0-9.2"/>
		<path class="st2" d="M0-5.6c3.1,0,5.6,2.5,5.6,5.6S3.1,5.6,0,5.6S-5.6,3.1-5.6,0S-3.1-5.6,0-5.6"/>
	</g>
	<path class="st3" d="M0,3.4c1.9,0,3.4-1.5,3.4-3.4S1.9-3.4,0-3.4S-3.3-1.9-3.3,0S-1.8,3.4,0,3.4z"/>
</symbol>
<symbol  id="Small_Star" viewBox="-6.2 -6.2 12.4 12.4">
	<g>
		<path class="st0" d="M0-6.2c3.4,0,6.2,2.8,6.2,6.2S3.4,6.2,0,6.2S-6.2,3.4-6.2,0C-6.2-3.4-3.4-6.2,0-6.2"/>
		<path class="st1" d="M0-4.8c2.7,0,4.8,2.2,4.8,4.8c0,2.7-2.2,4.8-4.8,4.8S-4.8,2.6-4.8,0C-4.8-2.7-2.7-4.8,0-4.8"/>
		<path class="st2" d="M0-2.8c1.5,0,2.8,1.2,2.8,2.8S1.5,2.8,0,2.8S-2.8,1.5-2.8,0S-1.5-2.8,0-2.8"/>
	</g>
	<path class="st3" d="M0,1.7c0.9,0,1.7-0.8,1.7-1.7S0.9-1.7,0-1.7S-1.7-0.9-1.7,0S-0.9,1.7,0,1.7z"/>
</symbol>
<rect x="660" y="-220" class="st4" width="2280" height="1000"/>
<use xlink:href="#Big_Star"  width="22.6" height="22.6" x="-11.3" y="-11.3" transform="matrix(1 0 0 -1 935.794 3.0035)" style="overflow:visible;"/>
<use xlink:href="#Big_Star"  width="22.6" height="22.6" x="-11.3" y="-11.3" transform="matrix(1 0 0 -1 915.294 659.1035)" style="overflow:visible;"/>
<use xlink:href="#Big_Star"  width="22.6" height="22.6" x="-11.3" y="-11.3" transform="matrix(1 0 0 -1 1328.6128 26.5536)" style="overflow:visible;"/>
<use xlink:href="#Small_Star"  width="12.4" height="12.4" x="-6.2" y="-6.2" transform="matrix(1 0 0 -1 902.6948 18.4905)" style="overflow:visible;"/>
<use xlink:href="#Small_Star"  width="12.4" height="12.4" x="-6.2" y="-6.2" transform="matrix(1 0 0 -1 1432.4443 152.5349)" style="overflow:visible;"/>
<use xlink:href="#Small_Star"  width="12.4" height="12.4" x="-6.2" y="-6.2" transform="matrix(1 0 0 -1 1447.8444 296.9349)" style="overflow:visible;"/>
<use xlink:href="#Small_Star"  width="12.4" height="12.4" x="-6.2" y="-6.2" transform="matrix(1 0 0 -1 1331.9635 402.3535)" style="overflow:visible;"/>
<use xlink:href="#Small_Star"  width="12.4" height="12.4" x="-6.2" y="-6.2" transform="matrix(1 0 0 -1 1339.3258 425.9535)" style="overflow:visible;"/>
<use xlink:href="#Small_Star"  width="12.4" height="12.4" x="-6.2" y="-6.2" transform="matrix(1 0 0 -1 1387.3629 537.0535)" style="overflow:visible;"/>
<use xlink:href="#Small_Star"  width="12.4" height="12.4" x="-6.2" y="-6.2" transform="matrix(1 0 0 -1 1459.1259 534.4535)" style="overflow:visible;"/>
<use xlink:href="#Small_Star"  width="12.4" height="12.4" x="-6.2" y="-6.2" transform="matrix(1 0 0 -1 1754.0259 218.0534)" style="overflow:visible;"/>
<use xlink:href="#Small_Star"  width="12.4" height="12.4" x="-6.2" y="-6.2" transform="matrix(1 0 0 -1 861.3441 292.1578)" style="overflow:visible;"/>
<use xlink:href="#Small_Star"  width="12.4" height="12.4" x="-6.2" y="-6.2" transform="matrix(1 0 0 -1 858.5444 398.3349)" style="overflow:visible;"/>
<use xlink:href="#Small_Star"  width="12.4" height="12.4" x="-6.2" y="-6.2" transform="matrix(1 0 0 -1 892.3444 461.8349)" style="overflow:visible;"/>
<use xlink:href="#Small_Star"  width="12.4" height="12.4" x="-6.2" y="-6.2" transform="matrix(1 0 0 -1 836.5258 486.3534)" style="overflow:visible;"/>
<use xlink:href="#Small_Star"  width="12.4" height="12.4" x="-6.2" y="-6.2" transform="matrix(1 0 0 -1 1018.444 608.1535)" style="overflow:visible;"/>
<use xlink:href="#Small_Star"  width="12.4" height="12.4" x="-6.2" y="-6.2" transform="matrix(1 0 0 -1 1119.344 575.4536)" style="overflow:visible;"/>
<use xlink:href="#Small_Star"  width="12.4" height="12.4" x="-6.2" y="-6.2" transform="matrix(1 0 0 -1 1147.7629 470.9535)" style="overflow:visible;"/>
<use xlink:href="#Small_Star"  width="12.4" height="12.4" x="-6.2" y="-6.2" transform="matrix(1 0 0 -1 1043.4629 664.4535)" style="overflow:visible;"/>
<use xlink:href="#Small_Star"  width="12.4" height="12.4" x="-6.2" y="-6.2" transform="matrix(1 0 0 -1 1637.3258 169.9534)" style="overflow:visible;"/>
<use xlink:href="#Small_Star"  width="12.4" height="12.4" x="-6.2" y="-6.2" transform="matrix(1 0 0 -1 1057.144 65.7153)" style="overflow:visible;"/>
<use xlink:href="#Small_Star"  width="12.4" height="12.4" x="-6.2" y="-6.2" transform="matrix(1 0 0 -1 848.1948 68.4905)" style="overflow:visible;"/>
<use xlink:href="#Small_Star"  width="12.4" height="12.4" x="-6.2" y="-6.2" transform="matrix(1 0 0 -1 880.5441 117.2535)" style="overflow:visible;"/>
<use xlink:href="#Small_Star"  width="12.4" height="12.4" x="-6.2" y="-6.2" transform="matrix(1 0 0 -1 1011.044 166.9536)" style="overflow:visible;"/>
<use xlink:href="#Small_Star"  width="12.4" height="12.4" x="-6.2" y="-6.2" transform="matrix(1 0 0 -1 1075.0441 156.6536)" style="overflow:visible;"/>
<use xlink:href="#Small_Star"  width="12.4" height="12.4" x="-6.2" y="-6.2" transform="matrix(1 0 0 -1 1818.6115 41.2405)" style="overflow:visible;"/>
<use xlink:href="#Small_Star"  width="12.4" height="12.4" x="-6.2" y="-6.2" transform="matrix(1 0 0 -1 2048.9258 156.6534)" style="overflow:visible;"/>
<use xlink:href="#Small_Star"  width="12.4" height="12.4" x="-6.2" y="-6.2" transform="matrix(1 0 0 -1 2027.663 127.4534)" style="overflow:visible;"/>
<use xlink:href="#Small_Star"  width="12.4" height="12.4" x="-6.2" y="-6.2" transform="matrix(1 0 0 -1 2295.8445 160.6718)" style="overflow:visible;"/>
<use xlink:href="#Small_Star"  width="12.4" height="12.4" x="-6.2" y="-6.2" transform="matrix(1 0 0 -1 2515.0439 35.0397)" style="overflow:visible;"/>
<use xlink:href="#Small_Star"  width="12.4" height="12.4" x="-6.2" y="-6.2" transform="matrix(1 0 0 -1 2518.9258 98.2533)" style="overflow:visible;"/>
<use xlink:href="#Small_Star"  width="12.4" height="12.4" x="-6.2" y="-6.2" transform="matrix(1 0 0 -1 2612.1257 305.0534)" style="overflow:visible;"/>
<use xlink:href="#Small_Star"  width="12.4" height="12.4" x="-6.2" y="-6.2" transform="matrix(1 0 0 -1 2617.2258 443.3534)" style="overflow:visible;"/>
<use xlink:href="#Small_Star"  width="12.4" height="12.4" x="-6.2" y="-6.2" transform="matrix(1 0 0 -1 2554.1257 496.5534)" style="overflow:visible;"/>
<use xlink:href="#Small_Star"  width="12.4" height="12.4" x="-6.2" y="-6.2" transform="matrix(1 0 0 -1 2536.2441 531.1535)" style="overflow:visible;"/>
<use xlink:href="#Small_Star"  width="12.4" height="12.4" x="-6.2" y="-6.2" transform="matrix(1 0 0 -1 2236.2441 613.2535)" style="overflow:visible;"/>
<use xlink:href="#Small_Star"  width="12.4" height="12.4" x="-6.2" y="-6.2" transform="matrix(1 0 0 -1 2184.7629 597.9535)" style="overflow:visible;"/>
<use xlink:href="#Small_Star"  width="12.4" height="12.4" x="-6.2" y="-6.2" transform="matrix(1 0 0 -1 2264.7258 458.9535)" style="overflow:visible;"/>
<use xlink:href="#Small_Star"  width="12.4" height="12.4" x="-6.2" y="-6.2" transform="matrix(1 0 0 -1 2230.1443 357.0349)" style="overflow:visible;"/>
<use xlink:href="#Small_Star"  width="12.4" height="12.4" x="-6.2" y="-6.2" transform="matrix(1 0 0 -1 2737.9629 438.1534)" style="overflow:visible;"/>
<use xlink:href="#Big_Star"  width="22.6" height="22.6" x="-11.3" y="-11.3" transform="matrix(1 0 0 -1 1965.9448 378.5738)" style="overflow:visible;"/>
<use xlink:href="#Big_Star"  width="22.6" height="22.6" x="-11.3" y="-11.3" transform="matrix(1 0 0 -1 2306.094 65.4535)" style="overflow:visible;"/>
<g>
	<g>
		<path class="st5" d="M2169,688.7c-1.9,0-3.8,0.3-5.8,1.1c-2.5-8-9.1-14.3-17-16.7c-2.2-6.3-8.2-10.7-15.4-10.7
			c-3.3,0-6.6,1.1-9.1,2.7c-4.4-6-11.8-9.9-19.8-9.9c-6.3,0-11.8,2.2-16.2,6c-4.1-8.5-12.6-14.3-22.5-14.3c-0.3,0-0.8,0-1.4,0
			c-3.3-9.9-12.6-17-23.6-17c-8.2,0-15.4,3.8-19.8,9.9c-2.5-1.6-5.8-2.7-9.1-2.7c-4.1,0-7.7,1.4-10.4,3.8c1.6-3.6,2.5-7.4,2.5-11.5
			c0-15.1-12.1-27.2-27.2-27.2c-0.5,0-0.8,0-1.4,0c-3.6-11-13.7-18.7-25.8-18.7c-8.8,0-16.7,4.4-21.7,11c-2.5-1.6-5.5-2.7-8.5-3
			c0.8-2.5,1.4-5.5,1.4-8.2c0-14-11.3-25.2-25.2-25.2c-0.3,0-0.8,0-1.4,0c-3.3-10.2-12.9-17.6-24.1-17.6c-8.2,0-15.6,4.1-20.3,10.2
			c-2.7-1.9-5.8-2.7-9.3-2.7c-7.1,0-13.2,4.7-15.6,11c-8.5,2.2-14.8,8.8-17.6,17c-1.9-0.8-3.8-1.1-5.8-1.1c-3.6,0-6.9,1.1-9.6,3
			c-4.9-8-13.4-14-23.6-15.4c-10.7-1.4-20.9,2.2-28,9.3c-3-2.7-6.9-4.7-11.3-5.2c-9.3-1.4-18.1,3.6-22.2,11.3
			c-11.3,1.4-20.9,8.5-25.8,18.7c-2.2-1.1-4.7-2.2-7.4-2.5c-11.8-1.6-22.5,6.6-24.4,18.1c-1.6-0.8-3.6-1.4-5.2-1.9
			c-3.8-11-14.5-18.9-26.9-18.9c-5.8,0-11.3,1.9-15.9,4.9c-8-10.7-20.9-17.6-35.1-17.6c-13.2,0-24.7,5.8-32.9,14.8
			c-3.3-1.4-7.1-2.2-11-2.2c-5.8,0-11.3,1.9-15.9,4.9c-8-10.7-20.9-17.6-35.1-17.6c-19.5,0-35.9,12.6-41.7,30.2c-0.8,0-1.4,0-2.2,0
			c-24.1,0-43.9,19.8-43.9,43.9s19.8,43.9,43.9,43.9c15.9,0,759,0,759,0S2177.8,688.7,2169,688.7z"/>
		<g>
			<path class="st3" d="M2817.6,650c-21.9-38.4-63.2-64.2-110.5-64.2c-15.5,0-30.4,2.8-44.1,7.9c-16.9-11.9-37.6-19-59.9-19
				c-29.5,0-56.1,12.3-75.1,32c-11.7-3.5-24.1-5.4-36.9-5.4c-32.9,0-62.9,12.4-85.7,32.7c-6.4-4.1-14-6.5-22.1-6.5
				c-16.5,0-30.7,9.9-37.3,23.9c-29.9,3.6-55.2,22.2-67.5,48c-11.5-7.4-25.2-11.8-40.1-11.8c-15.1,0-29.1,4.7-40.6,12.3
				c-10.2-8.2-23.3-13.2-37.3-13.2c-10.5,0-20.3,2.6-28.8,7.4c-24-12.3-51.1-19.1-79.9-19.1c-4.8,0-9.9,0.2-14.6,0.6
				c-0.9-0.4-1.9-0.8-2.8-1.2c-8.6-12.4-22.8-20.6-38.9-20.6h-0.3c-10.6-14.6-27.5-24.6-46.9-26.1c-1.6-6-5.3-11-10.4-14.3
				c0-2.5-0.3-4.9-0.9-7.1c4.3-4.3,6.9-10.3,6.9-16.9c0-2.7-0.4-5.3-1.3-7.7c3.6-2.2,6.1-6.3,6.1-10.7v-0.3c4.4-1.1,7.7-5.2,7.7-9.9
				c0-0.4,0-0.8-0.1-1.2c0.2-0.3,0.5-0.5,0.7-0.8c3.7-0.4,6.6-3.4,6.6-7.3c0-0.1,0-0.1,0-0.2c11.5-13.1,24.5-28.2,39.1-45.4
				l-7.4-6.3c-14.1,16.6-26.5,31.4-37.3,44.5c-0.7-0.2-1.4-0.3-2.1-0.3c-4.1,0-7.4,3.3-7.7,7.1c-0.5,0-1.4-0.3-1.9-0.3
				c-4.7,0-8.8,3.3-9.9,7.7h-0.3c-5,0-9.4,3.1-11.4,7.4c-1.6-0.3-3.2-0.5-4.9-0.5c-6.8,0-13,2.8-17.3,7.4
				c-5.7-3.4-12.3-5.3-19.4-5.3c-13.5,0-25.3,7-32,17.6c-4.4-1.3-9.1-2-13.9-2c-20.3,0-37.9,12.3-45.6,30.2
				c-9.9-6-21.4-9.6-33.8-9.6c-15.9,0-30.5,5.8-41.4,15.4c-20-10.4-43.1-16.5-67.2-16.5c-28.8,0-55.6,8.3-78.2,22.6
				c-2.3-0.2-4.6-0.3-7-0.3c-8.8,0-17,1.6-25,4.4c-9.6-4.7-20.3-7.4-31.6-7.4c-12.3,0-23.6,3-33.8,8.5
				c-12.9-22.2-36.2-36.8-63.1-36.8c-9.3,0-18.4,1.9-26.6,5.2c-4.1-9.3-13.7-15.9-24.7-15.9c-6.9,0-13.2,2.5-17.8,6.9
				c-16.5-34-51.9-57.9-93-57.9c-3.1,0-6.1,0.1-9.2,0.4c-15-17.2-37-28-61.5-28c-14.2,0-27.5,3.6-39.1,10
				c-17.5-12.5-39-19.9-62.2-19.9c-27.9,0-53.3,10.7-72.3,28.1c-9.6-7.4-21.7-11.9-34.8-11.9c-30.8,0-55.9,24.5-56.9,55.1
				c-9.4-4.5-19.9-7.1-31-7.1c-23.8,0-44.8,11.7-57.7,29.7c-7.2-1.5-14.7-2.3-22.3-2.3c-59.2,0-107.1,48-107.1,107.1
				c0,40,10.8,87,52.8,87h2158.7C2904.7,696.6,2856.8,663.4,2817.6,650z"/>
		</g>
		<g>
			<g>
				<path class="st6" d="M2008.4,468.1l4.7,4.1l-20.3,23.9c0,0-5.5-7.1-27.2,1.6C1990.1,468.6,2008.4,468.1,2008.4,468.1z"/>
				<path class="st7" d="M2031.5,487.6l-4.7-4.1l-20.3,24.1c0,0,8,4.4,3,27.2C2034,505.7,2031.5,487.6,2031.5,487.6z"/>
			</g>
			
				<linearGradient id="SVGID_1_" gradientUnits="userSpaceOnUse" x1="2545.1362" y1="1630.6852" x2="2594.863" y2="1677.0563" gradientTransform="matrix(0.5774 0 0 0.5774 550.2932 -493.6304)">
				<stop  offset="0" style="stop-color:#E3F2FA"/>
				<stop  offset="5.893186e-02" style="stop-color:#E3F2FA"/>
				<stop  offset="0.5964" style="stop-color:#B9DEF2"/>
				<stop  offset="1" style="stop-color:#B9DEF2"/>
			</linearGradient>
			<path class="st8" d="M2013.4,454.9c-14.3,17-19.8,31.8-21.7,42l13.4,11.5c9.9-3.6,23.6-11.3,37.9-28.3
				c27.2-31.8,26.3-61.2,26.3-61.2S2040.6,423.1,2013.4,454.9z"/>
			<path class="st9" d="M2049.1,463.3c5-3.4,5.4-11.2,1.4-17.4l-18.1,12.2C2036.7,464.4,2044,466.6,2049.1,463.3z"/>
			<path class="st9" d="M2038.1,471.3c-14.3,17-28.7,26.2-38.6,32.2l5.6,4.8c9.9-3.6,23.6-11.3,37.9-28.3
				c27.2-31.8,26.3-61.2,26.3-61.2S2064.2,438.8,2038.1,471.3z"/>
			<g>
				
					<linearGradient id="SVGID_2_" gradientUnits="userSpaceOnUse" x1="1977.9324" y1="1220.5219" x2="1977.9324" y2="1182.9213" gradientTransform="matrix(0.4083 -0.4083 0.4083 0.4083 743.1462 769.0764)">
					<stop  offset="0" style="stop-color:#1A344C"/>
					<stop  offset="0.5" style="stop-color:#1A344C"/>
				</linearGradient>
				<circle class="st10" cx="2041.4" cy="452.2" r="11"/>
				
					<linearGradient id="SVGID_3_" gradientUnits="userSpaceOnUse" x1="1978.2998" y1="1213.2208" x2="1978.2998" y2="1183.921" gradientTransform="matrix(0.4083 -0.4083 0.4083 0.4083 743.1462 769.0764)">
					<stop  offset="0" style="stop-color:#1D425D"/>
					<stop  offset="0.5295" style="stop-color:#2882A6"/>
					<stop  offset="1" style="stop-color:#32B7E3"/>
				</linearGradient>
				<circle class="st11" cx="2040.3" cy="450.8" r="8.5"/>
				<circle class="st12" cx="2037" cy="447.5" r="3.3"/>
			</g>
			<path class="st6" d="M2010.9,491.1c1.9-2.2,4.7-5.8,6.3-8.2l2.2-3.6c1.4-2.5,0.8-3-1.4-1.1l-3.3,2.7c-2.2,1.9-5.5,5.2-7.1,7.4
				l-19.2,25.5c-1.6,2.2-1.4,2.5,0.5,0.3L2010.9,491.1z"/>
			<path class="st9" d="M2020,477.1c2.5,3,3.6,11,2.7,12.1c-1.6,2.5-17.6,19.2-17.6,19.2l-8-6.9L2020,477.1z"/>
			<path class="st6" d="M2011.5,491.7c1.9-1.9,4.7-5.8,6-8.5l1.9-3.8c1.4-2.5,0.5-3.3-1.9-1.6l-3.6,2.5c-2.2,1.6-5.5,4.9-7.4,7.4
				l-18.9,26.1c-1.6,2.2-1.4,2.5,0.5,0.5L2011.5,491.7z"/>
			<path class="st7" d="M2011.5,491.7c1.9-1.9,4.7-5.8,6-8.5l1.9-3.8c0.5-2.2-4.1,5.2-11,12.9c-9.6,11-22.2,23.9-19.8,22
				L2011.5,491.7z"/>
		</g>
	</g>
</g>
<use xlink:href="#Big_Star"  width="22.6" height="22.6" x="-11.3" y="-11.3" transform="matrix(1 0 0 -1 2494.2939 275.3535)" style="overflow:visible;"/>
<use xlink:href="#Big_Star"  width="22.6" height="22.6" x="-11.3" y="-11.3" transform="matrix(1 0 0 -1 2669.6941 146.3535)" style="overflow:visible;"/>
<use xlink:href="#Big_Star"  width="22.6" height="22.6" x="-11.3" y="-11.3" transform="matrix(1 0 0 -1 2854.4441 25.6735)" style="overflow:visible;"/>
<use xlink:href="#Big_Star"  width="22.6" height="22.6" x="-11.3" y="-11.3" transform="matrix(1 0 0 -1 2841.344 644.8735)" style="overflow:visible;"/>
<use xlink:href="#Big_Star"  width="22.6" height="22.6" x="-11.3" y="-11.3" transform="matrix(1 0 0 -1 2775.844 397.2035)" style="overflow:visible;"/>
<use xlink:href="#Big_Star"  width="22.6" height="22.6" x="-11.3" y="-11.3" transform="matrix(1 0 0 -1 915.294 -75.9701)" style="overflow:visible;"/>
<use xlink:href="#Small_Star"  width="12.4" height="12.4" x="-6.2" y="-6.2" transform="matrix(1 0 0 -1 1387.3629 -198.0201)" style="overflow:visible;"/>
<use xlink:href="#Small_Star"  width="12.4" height="12.4" x="-6.2" y="-6.2" transform="matrix(1 0 0 -1 1459.1259 -200.62)" style="overflow:visible;"/>
<use xlink:href="#Small_Star"  width="12.4" height="12.4" x="-6.2" y="-6.2" transform="matrix(1 0 0 -1 1018.444 -126.92)" style="overflow:visible;"/>
<use xlink:href="#Small_Star"  width="12.4" height="12.4" x="-6.2" y="-6.2" transform="matrix(1 0 0 -1 1119.344 -159.62)" style="overflow:visible;"/>
<use xlink:href="#Small_Star"  width="12.4" height="12.4" x="-6.2" y="-6.2" transform="matrix(1 0 0 -1 1043.4629 -70.62)" style="overflow:visible;"/>
<use xlink:href="#Small_Star"  width="12.4" height="12.4" x="-6.2" y="-6.2" transform="matrix(1 0 0 -1 2536.2441 -203.92)" style="overflow:visible;"/>
<use xlink:href="#Small_Star"  width="12.4" height="12.4" x="-6.2" y="-6.2" transform="matrix(1 0 0 -1 2236.2441 -121.82)" style="overflow:visible;"/>
<use xlink:href="#Small_Star"  width="12.4" height="12.4" x="-6.2" y="-6.2" transform="matrix(1 0 0 -1 2184.7629 -137.12)" style="overflow:visible;"/>
<use xlink:href="#Big_Star"  width="22.6" height="22.6" x="-11.3" y="-11.3" transform="matrix(1 0 0 -1 2841.344 -90.2)" style="overflow:visible;"/>
</svg>
