<?xml version="1.0" encoding="utf-8"?>
<!-- Generator: Adobe Illustrator 19.0.0, SVG Export Plug-In . SVG Version: 6.00 Build 0)  -->
<!DOCTYPE svg PUBLIC "-//W3C//DTD SVG 1.1//EN" "http://www.w3.org/Graphics/SVG/1.1/DTD/svg11.dtd">
<svg version="1.1" id="Layer_1" xmlns="http://www.w3.org/2000/svg" xmlns:xlink="http://www.w3.org/1999/xlink" x="0px" y="0px"
	 viewBox="660 -220 2280 1000" style="enable-background:new 660 -220 2280 1000;" xml:space="preserve">
<style type="text/css">
	.st0{opacity:0.1;fill:#68C2E8;}
	.st1{opacity:0.2;fill:#68C2E8;}
	.st2{opacity:0.8;fill:#68C2E8;}
	.st3{fill:#FFFFFF;}
	.st4{fill:#222630;}
	.st5{opacity:0.4;fill:#A8D7F0;enable-background:new    ;}
	.st6{fill:#485D70;}
	.st7{fill:#384761;}
	.st8{fill:url(#SVGID_1_);}
	.st9{fill:#50B7EF;}
	.st10{fill:url(#SVGID_2_);}
	.st11{fill:url(#SVGID_3_);}
	.st12{fill:#FAFAFA;}
</style>
<symbol  id="Big_Star" viewBox="-11.3 -11.3 22.6 22.6">
	<g>
		<path class="st0" d="M0-11.3c6.2,0,11.3,5.1,11.3,11.3S6.2,11.3,0,11.3S-11.3,6.2-11.3,0C-11.3-6.2-6.2-11.3,0-11.3"/>
		<path class="st1" d="M0-9.2C5.1-9.2,9.2-5,9.2,0C9.2,5.1,5,9.2,0,9.2S-9.2,5-9.2,0C-9.2-5.1-5.1-9.2,0-9.2"/>
		<path class="st2" d="M0-5.6c3.1,0,5.6,2.5,5.6,5.6S3.1,5.6,0,5.6S-5.6,3.1-5.6,0S-3.1-5.6,0-5.6"/>
	</g>
	<path class="st3" d="M0,3.4c1.9,0,3.4-1.5,3.4-3.4S1.9-3.4,0-3.4S-3.3-1.9-3.3,0S-1.8,3.4,0,3.4z"/>
</symbol>
<symbol  id="Small_Star" viewBox="-6.2 -6.2 12.4 12.4">
	<g>
		<path class="st0" d="M0-6.2c3.4,0,6.2,2.8,6.2,6.2S3.4,6.2,0,6.2S-6.2,3.4-6.2,0C-6.2-3.4-3.4-6.2,0-6.2"/>
		<path class="st1" d="M0-4.8c2.7,0,4.8,2.2,4.8,4.8c0,2.7-2.2,4.8-4.8,4.8S-4.8,2.6-4.8,0C-4.8-2.7-2.7-4.8,0-4.8"/>
		<path class="st2" d="M0-2.8c1.5,0,2.8,1.2,2.8,2.8S1.5,2.8,0,2.8S-2.8,1.5-2.8,0S-1.5-2.8,0-2.8"/>
	</g>
	<path class="st3" d="M0,1.7c0.9,0,1.7-0.8,1.7-1.7S0.9-1.7,0-1.7S-1.7-0.9-1.7,0S-0.9,1.7,0,1.7z"/>
</symbol>
<rect x="660" y="-220" class="st4" width="2280" height="1000"/>
<use xlink:href="#Big_Star"  width="22.6" height="22.6" x="-11.3" y="-11.3" transform="matrix(1 0 0 -1 935.794 3.0035)" style="overflow:visible;"/>
<use xlink:href="#Big_Star"  width="22.6" height="22.6" x="-11.3" y="-11.3" transform="matrix(1 0 0 -1 915.294 659.1035)" style="overflow:visible;"/>
<use xlink:href="#Big_Star"  width="22.6" height="22.6" x="-11.3" y="-11.3" transform="matrix(1 0 0 -1 1328.6128 26.5536)" style="overflow:visible;"/>
<use xlink:href="#Small_Star"  width="12.4" height="12.4" x="-6.2" y="-6.2" transform="matrix(1 0 0 -1 902.6948 18.4905)" style="overflow:visible;"/>
<use xlink:href="#Small_Star"  width="12.4" height="12.4" x="-6.2" y="-6.2" transform="matrix(1 0 0 -1 1432.4443 152.5349)" style="overflow:visible;"/>
<use xlink:href="#Small_Star"  width="12.4" height="12.4" x="-6.2" y="-6.2" transform="matrix(1 0 0 -1 1447.8444 296.9349)" style="overflow:visible;"/>
<use xlink:href="#Small_Star"  width="12.4" height="12.4" x="-6.2" y="-6.2" transform="matrix(1 0 0 -1 1331.9635 402.3535)" style="overflow:visible;"/>
<use xlink:href="#Small_Star"  width="12.4" height="12.4" x="-6.2" y="-6.2" transform="matrix(1 0 0 -1 1339.3258 425.9535)" style="overflow:visible;"/>
<use xlink:href="#Small_Star"  width="12.4" height="12.4" x="-6.2" y="-6.2" transform="matrix(1 0 0 -1 1387.3629 537.0535)" style="overflow:visible;"/>
<use xlink:href="#Small_Star"  width="12.4" height="12.4" x="-6.2" y="-6.2" transform="matrix(1 0 0 -1 1459.1259 534.4535)" style="overflow:visible;"/>
<use xlink:href="#Small_Star"  width="12.4" height="12.4" x="-6.2" y="-6.2" transform="matrix(1 0 0 -1 1754.0259 218.0534)" style="overflow:visible;"/>
<use xlink:href="#Small_Star"  width="12.4" height="12.4" x="-6.2" y="-6.2" transform="matrix(1 0 0 -1 861.3441 292.1578)" style="overflow:visible;"/>
<use xlink:href="#Small_Star"  width="12.4" height="12.4" x="-6.2" y="-6.2" transform="matrix(1 0 0 -1 858.5444 398.3349)" style="overflow:visible;"/>
<use xlink:href="#Small_Star"  width="12.4" height="12.4" x="-6.2" y="-6.2" transform="matrix(1 0 0 -1 892.3444 461.8349)" style="overflow:visible;"/>
<use xlink:href="#Small_Star"  width="12.4" height="12.4" x="-6.2" y="-6.2" transform="matrix(1 0 0 -1 836.5258 486.3534)" style="overflow:visible;"/>
<use xlink:href="#Small_Star"  width="12.4" height="12.4" x="-6.2" y="-6.2" transform="matrix(1 0 0 -1 1018.444 608.1535)" style="overflow:visible;"/>
<use xlink:href="#Small_Star"  width="12.4" height="12.4" x="-6.2" y="-6.2" transform="matrix(1 0 0 -1 1119.344 575.4536)" style="overflow:visible;"/>
<use xlink:href="#Small_Star"  width="12.4" height="12.4" x="-6.2" y="-6.2" transform="matrix(1 0 0 -1 1147.7629 470.9535)" style="overflow:visible;"/>
<use xlink:href="#Small_Star"  width="12.4" height="12.4" x="-6.2" y="-6.2" transform="matrix(1 0 0 -1 1043.4629 664.4535)" style="overflow:visible;"/>
<use xlink:href="#Small_Star"  width="12.4" height="12.4" x="-6.2" y="-6.2" transform="matrix(1 0 0 -1 1637.3258 169.9534)" style="overflow:visible;"/>
<use xlink:href="#Small_Star"  width="12.4" height="12.4" x="-6.2" y="-6.2" transform="matrix(1 0 0 -1 1057.144 65.7153)" style="overflow:visible;"/>
<use xlink:href="#Small_Star"  width="12.4" height="12.4" x="-6.2" y="-6.2" transform="matrix(1 0 0 -1 848.1948 68.4905)" style="overflow:visible;"/>
<use xlink:href="#Small_Star"  width="12.4" height="12.4" x="-6.2" y="-6.2" transform="matrix(1 0 0 -1 880.5441 117.2535)" style="overflow:visible;"/>
<use xlink:href="#Small_Star"  width="12.4" height="12.4" x="-6.2" y="-6.2" transform="matrix(1 0 0 -1 1011.044 166.9536)" style="overflow:visible;"/>
<use xlink:href="#Small_Star"  width="12.4" height="12.4" x="-6.2" y="-6.2" transform="matrix(1 0 0 -1 1075.0441 156.6536)" style="overflow:visible;"/>
<use xlink:href="#Small_Star"  width="12.4" height="12.4" x="-6.2" y="-6.2" transform="matrix(1 0 0 -1 1818.6115 41.2405)" style="overflow:visible;"/>
<use xlink:href="#Small_Star"  width="12.4" height="12.4" x="-6.2" y="-6.2" transform="matrix(1 0 0 -1 2048.9258 156.6534)" style="overflow:visible;"/>
<use xlink:href="#Small_Star"  width="12.4" height="12.4" x="-6.2" y="-6.2" transform="matrix(1 0 0 -1 2027.663 127.4534)" style="overflow:visible;"/>
<use xlink:href="#Small_Star"  width="12.4" height="12.4" x="-6.2" y="-6.2" transform="matrix(1 0 0 -1 2295.8445 160.6718)" style="overflow:visible;"/>
<use xlink:href="#Small_Star"  width="12.4" height="12.4" x="-6.2" y="-6.2" transform="matrix(1 0 0 -1 2515.0439 35.0397)" style="overflow:visible;"/>
<use xlink:href="#Small_Star"  width="12.4" height="12.4" x="-6.2" y="-6.2" transform="matrix(1 0 0 -1 2518.9258 98.2533)" style="overflow:visible;"/>
<use xlink:href="#Small_Star"  width="12.4" height="12.4" x="-6.2" y="-6.2" transform="matrix(1 0 0 -1 2612.1257 305.0534)" style="overflow:visible;"/>
<use xlink:href="#Small_Star"  width="12.4" height="12.4" x="-6.2" y="-6.2" transform="matrix(1 0 0 -1 2617.2258 443.3534)" style="overflow:visible;"/>
<use xlink:href="#Small_Star"  width="12.4" height="12.4" x="-6.2" y="-6.2" transform="matrix(1 0 0 -1 2554.1257 496.5534)" style="overflow:visible;"/>
<use xlink:href="#Small_Star"  width="12.4" height="12.4" x="-6.2" y="-6.2" transform="matrix(1 0 0 -1 2536.2441 531.1535)" style="overflow:visible;"/>
<use xlink:href="#Small_Star"  width="12.4" height="12.4" x="-6.2" y="-6.2" transform="matrix(1 0 0 -1 2236.2441 613.2535)" style="overflow:visible;"/>
<use xlink:href="#Small_Star"  width="12.4" height="12.4" x="-6.2" y="-6.2" transform="matrix(1 0 0 -1 2184.7629 597.9535)" style="overflow:visible;"/>
<use xlink:href="#Small_Star"  width="12.4" height="12.4" x="-6.2" y="-6.2" transform="matrix(1 0 0 -1 2264.7258 458.9535)" style="overflow:visible;"/>
<use xlink:href="#Small_Star"  width="12.4" height="12.4" x="-6.2" y="-6.2" transform="matrix(1 0 0 -1 2230.1443 357.0349)" style="overflow:visible;"/>
<use xlink:href="#Small_Star"  width="12.4" height="12.4" x="-6.2" y="-6.2" transform="matrix(1 0 0 -1 2737.9629 438.1534)" style="overflow:visible;"/>
<use xlink:href="#Big_Star"  width="22.6" height="22.6" x="-11.3" y="-11.3" transform="matrix(1 0 0 -1 1965.9448 378.5738)" style="overflow:visible;"/>
<use xlink:href="#Big_Star"  width="22.6" height="22.6" x="-11.3" y="-11.3" transform="matrix(1 0 0 -1 2306.094 65.4535)" style="overflow:visible;"/>

<use xlink:href="#Big_Star"  width="22.6" height="22.6" x="-11.3" y="-11.3" transform="matrix(1 0 0 -1 2494.2939 275.3535)" style="overflow:visible;"/>
<use xlink:href="#Big_Star"  width="22.6" height="22.6" x="-11.3" y="-11.3" transform="matrix(1 0 0 -1 2669.6941 146.3535)" style="overflow:visible;"/>
<use xlink:href="#Big_Star"  width="22.6" height="22.6" x="-11.3" y="-11.3" transform="matrix(1 0 0 -1 2854.4441 25.6735)" style="overflow:visible;"/>
<use xlink:href="#Big_Star"  width="22.6" height="22.6" x="-11.3" y="-11.3" transform="matrix(1 0 0 -1 2841.344 644.8735)" style="overflow:visible;"/>
<use xlink:href="#Big_Star"  width="22.6" height="22.6" x="-11.3" y="-11.3" transform="matrix(1 0 0 -1 2775.844 397.2035)" style="overflow:visible;"/>
<use xlink:href="#Big_Star"  width="22.6" height="22.6" x="-11.3" y="-11.3" transform="matrix(1 0 0 -1 915.294 -75.9701)" style="overflow:visible;"/>
<use xlink:href="#Small_Star"  width="12.4" height="12.4" x="-6.2" y="-6.2" transform="matrix(1 0 0 -1 1387.3629 -198.0201)" style="overflow:visible;"/>
<use xlink:href="#Small_Star"  width="12.4" height="12.4" x="-6.2" y="-6.2" transform="matrix(1 0 0 -1 1459.1259 -200.62)" style="overflow:visible;"/>
<use xlink:href="#Small_Star"  width="12.4" height="12.4" x="-6.2" y="-6.2" transform="matrix(1 0 0 -1 1018.444 -126.92)" style="overflow:visible;"/>
<use xlink:href="#Small_Star"  width="12.4" height="12.4" x="-6.2" y="-6.2" transform="matrix(1 0 0 -1 1119.344 -159.62)" style="overflow:visible;"/>
<use xlink:href="#Small_Star"  width="12.4" height="12.4" x="-6.2" y="-6.2" transform="matrix(1 0 0 -1 1043.4629 -70.62)" style="overflow:visible;"/>
<use xlink:href="#Small_Star"  width="12.4" height="12.4" x="-6.2" y="-6.2" transform="matrix(1 0 0 -1 2536.2441 -203.92)" style="overflow:visible;"/>
<use xlink:href="#Small_Star"  width="12.4" height="12.4" x="-6.2" y="-6.2" transform="matrix(1 0 0 -1 2236.2441 -121.82)" style="overflow:visible;"/>
<use xlink:href="#Small_Star"  width="12.4" height="12.4" x="-6.2" y="-6.2" transform="matrix(1 0 0 -1 2184.7629 -137.12)" style="overflow:visible;"/>
<use xlink:href="#Big_Star"  width="22.6" height="22.6" x="-11.3" y="-11.3" transform="matrix(1 0 0 -1 2841.344 -90.2)" style="overflow:visible;"/>
</svg>
