<?xml version="1.0" encoding="utf-8"?>
<!-- Generator: Adobe Illustrator 16.0.0, SVG Export Plug-In . SVG Version: 6.00 Build 0)  -->
<!DOCTYPE svg PUBLIC "-//W3C//DTD SVG 1.1//EN" "http://www.w3.org/Graphics/SVG/1.1/DTD/svg11.dtd">
<svg version="1.1" id="Layer_1" xmlns="http://www.w3.org/2000/svg" xmlns:xlink="http://www.w3.org/1999/xlink" x="0px" y="0px"
	 width="500px" height="158.74px" viewBox="0 0 500 158.74" enable-background="new 0 0 500 158.74" xml:space="preserve">
<rect x="-9.501" fill="#B13B35" width="19.184" height="158.74"/>
<rect x="4" fill="#CC433C" width="73" height="158.74"/>
<rect x="77" fill="#B13B35" width="30" height="158.74"/>
<rect x="107" fill="#762723" width="6" height="158.74"/>
<rect x="113" fill="#F4A737" width="47" height="158.74"/>
<rect x="160" fill="#F2C065" width="57" height="158.74"/>
<rect x="217" fill="#EDDD4C" width="18" height="158.74"/>
<rect x="235" fill="#A8CA38" width="6" height="158.74"/>
<rect x="241" fill="#BBD87A" width="75" height="158.74"/>
<rect x="316" fill="#3D8BC8" width="24" height="158.74"/>
<rect x="340" fill="#3371AF" width="42" height="158.74"/>
<rect x="382" fill="#384761" width="28" height="158.74"/>
<rect x="410" fill="#C0A2CC" width="58" height="158.74"/>
<rect x="468" fill="#907A99" width="26" height="158.74"/>
<rect x="494" fill="#605166" width="17.804" height="158.74"/>
<rect x="17.182" y="-318.463" fill="#384761" width="38.666" height="38.666"/>
<text transform="matrix(1 0 0 1 69.8494 -308.0312)" fill="#231F20" font-family="'CourierNewPS-BoldMT'" font-size="9.4627">C:75 M:60 Y:30 K:40</text>
<text transform="matrix(1 0 0 1 69.8494 -294.8882)" fill="#231F20" font-family="'CourierNewPS-BoldMT'" font-size="9.4627">R:35 G:31 B:32</text>
<text transform="matrix(1 0 0 1 69.8494 -281.7451)" fill="#231F20" font-family="'CourierNewPS-BoldMT'" font-size="9.4627">#231F20</text>
<rect x="211.921" y="-200.463" fill="#A8CA38" width="38.666" height="38.666"/>
<rect x="17.182" y="-200.462" fill="#EDDD4C" width="38.666" height="38.665"/>
<rect x="17.182" y="-261.963" fill="#F16B64" width="38.666" height="38.666"/>
<rect x="211.921" y="-143.963" fill="#6B7EB7" width="38.666" height="38.666"/>
<rect x="405.25" y="-318.463" fill="#3371AF" width="38.666" height="38.666"/>
<rect x="211.921" y="-261.963" fill="#EC4E46" width="38.666" height="38.666"/>
<rect x="405.25" y="-261.963" fill="#F4A737" width="38.666" height="38.666"/>
<rect x="211.921" y="-318.463" fill="#3D8BC8" width="38.666" height="38.666"/>
<rect x="17.182" y="-143.963" fill="#C0A2CC" width="38.666" height="38.666"/>
<rect x="405.25" y="-200.463" fill="#BBD87A" width="38.666" height="38.666"/>
<rect x="405.25" y="-143.963" fill="#323333" width="38.666" height="38.666"/>
<rect x="600.016" y="-200.463" fill="#A9DFF6" width="38.666" height="38.666"/>
<rect x="600.016" y="-143.963" fill="#D2D3D3" width="38.666" height="38.666"/>
<rect x="600.151" y="-261.963" fill="#F2C065" width="38.666" height="38.666"/>
<rect x="600.151" y="-318.463" fill="#4BA7DD" width="38.666" height="38.666"/>
</svg>
